<svg width="1510" height="197" viewBox="0 0 1510 197" fill="none" xmlns="http://www.w3.org/2000/svg">
<rect y="22" width="200" height="175" rx="87.5" fill="#EEEEEE"/>
<rect x="135" y="22" width="200" height="175" rx="87.5" fill="#EEEEEE"/>
<rect x="270" y="22" width="200" height="175" rx="87.5" fill="#EEEEEE"/>
<rect x="405" y="22" width="200" height="175" rx="87.5" fill="#EEEEEE"/>
<rect x="540" y="22" width="200" height="175" rx="87.5" fill="#EEEEEE"/>
<rect x="675" y="22" width="200" height="175" rx="87.5" fill="#EEEEEE"/>
<rect x="810" y="22" width="200" height="175" rx="87.5" fill="#EEEEEE"/>
<rect x="945" y="22" width="200" height="175" rx="87.5" fill="#EEEEEE"/>
<rect x="1080" y="22" width="200" height="175" rx="87.5" fill="#EEEEEE"/>
<rect x="1215" y="22" width="200" height="175" rx="87.5" fill="#EEEEEE"/>
<rect y="7" width="200" height="175" rx="87.5" fill="white"/>
<rect x="135" y="7" width="200" height="175" rx="87.5" fill="white"/>
<rect x="270" y="7" width="200" height="175" rx="87.5" fill="white"/>
<rect x="405" y="7" width="200" height="175" rx="87.5" fill="white"/>
<rect x="540" y="7" width="200" height="175" rx="87.5" fill="white"/>
<rect x="675" y="7" width="200" height="175" rx="87.5" fill="white"/>
<rect x="810" y="7" width="200" height="175" rx="87.5" fill="white"/>
<rect x="945" y="7" width="200" height="175" rx="87.5" fill="white"/>
<rect x="1080" y="7" width="200" height="175" rx="87.5" fill="white"/>
<rect x="1215" y="7" width="200" height="175" rx="87.5" fill="white"/>
<circle cx="1456.5" cy="64.5" r="22.5" fill="#EEEEEE"/>
<circle cx="1497.5" cy="14.5" r="12.5" fill="#EEEEEE"/>
<circle cx="1456.5" cy="60.5" r="22.5" fill="white"/>
<circle cx="1497.5" cy="12.5" r="12.5" fill="white"/>
</svg>
