<svg width="31" height="30" viewBox="0 0 31 30" fill="none" xmlns="http://www.w3.org/2000/svg">
<path d="M15.0469 14.375C14.2181 14.375 13.4232 14.0458 12.8372 13.4597C12.2511 12.8737 11.9219 12.0788 11.9219 11.25C11.9219 10.4212 12.2511 9.62634 12.8372 9.04029C13.4232 8.45424 14.2181 8.125 15.0469 8.125C15.8757 8.125 16.6705 8.45424 17.2566 9.04029C17.8426 9.62634 18.1719 10.4212 18.1719 11.25C18.1719 11.6604 18.091 12.0667 17.934 12.4459C17.777 12.825 17.5468 13.1695 17.2566 13.4597C16.9664 13.7499 16.6219 13.9801 16.2428 14.1371C15.8636 14.2942 15.4573 14.375 15.0469 14.375ZM15.0469 2.5C12.7262 2.5 10.5006 3.42187 8.85969 5.06282C7.21875 6.70376 6.29688 8.92936 6.29688 11.25C6.29688 17.8125 15.0469 27.5 15.0469 27.5C15.0469 27.5 23.7969 17.8125 23.7969 11.25C23.7969 8.92936 22.875 6.70376 21.2341 5.06282C19.5931 3.42187 17.3675 2.5 15.0469 2.5Z" fill="#3A3A3A"/>
</svg>
