<svg width="20" height="23" viewBox="0 0 20 23" fill="none" xmlns="http://www.w3.org/2000/svg">
<path d="M10.7495 11.5366L16.3775 5.44634C16.4768 5.33847 16.5325 5.19245 16.5324 5.04028C16.5323 4.8881 16.4765 4.74217 16.377 4.63444C16.178 4.42039 15.8275 4.41931 15.6265 4.63552L10 10.7258L4.37154 4.6339C4.17154 4.42039 3.82104 4.42147 3.62204 4.63498C3.57265 4.68817 3.53355 4.75146 3.50702 4.82116C3.48049 4.89085 3.46707 4.96557 3.46754 5.04093C3.46754 5.19444 3.52254 5.33823 3.62204 5.44471L9.25004 11.5361L3.62254 17.628C3.52323 17.736 3.46762 17.8822 3.4679 18.0345C3.46818 18.1868 3.52434 18.3328 3.62404 18.4404C3.72054 18.5436 3.85704 18.6031 3.99804 18.6031H4.00104C4.14254 18.6026 4.27904 18.5426 4.37354 18.4382L10 12.348L15.6285 18.4398C15.728 18.5469 15.861 18.6063 16.002 18.6063C16.0718 18.6066 16.1408 18.5919 16.2053 18.5631C16.2697 18.5344 16.3283 18.4921 16.3776 18.4388C16.4269 18.3855 16.466 18.3222 16.4926 18.2526C16.5192 18.1829 16.5327 18.1082 16.5325 18.0328C16.5325 17.8799 16.4775 17.7355 16.3775 17.629L10.7495 11.5366Z" fill="#E34A4A"/>
</svg>
