<svg width="157" height="70" viewBox="0 0 157 70" fill="none" xmlns="http://www.w3.org/2000/svg">
<rect x="59.123" y="47.5996" width="38.1347" height="22.4003" rx="11.2001" fill="#E37D82"/>
<rect x="59.123" y="44.7998" width="38.1347" height="22.4003" rx="11.2001" fill="#FF9A9F"/>
<ellipse cx="70.2909" cy="56.2801" rx="4.08586" ry="4.20005" fill="#4B3F4E"/>
<ellipse cx="86.0898" cy="56.2801" rx="4.08586" ry="4.20005" fill="#4B3F4E"/>
<ellipse cx="45.7753" cy="38.9208" rx="4.08586" ry="4.20005" fill="#4B3F4E"/>
<ellipse cx="110.605" cy="38.9208" rx="4.08586" ry="4.20005" fill="#4B3F4E"/>
<path d="M29.4886 29.8342C29.5116 31.5884 27.956 32.9269 26.2801 32.5948L11.5769 29.6803C9.35873 29.2406 8.641 26.3528 10.3784 24.858L24.8792 12.3813C26.6166 10.8864 29.2557 12.1211 29.2862 14.4431L29.4886 29.8342Z" fill="#E37D82"/>
<path d="M29.4886 27.594C29.5116 29.3482 27.956 30.6867 26.2801 30.3545L11.5769 27.4401C9.35873 27.0004 8.641 24.1126 10.3784 22.6177L24.8792 10.1411C26.6166 8.64618 29.2557 9.88085 29.2862 12.2028L29.4886 27.594Z" fill="#FF9A9F"/>
<path d="M127.013 29.8342C126.99 31.5884 128.546 32.9269 130.222 32.5948L144.925 29.6803C147.143 29.2406 147.861 26.3528 146.124 24.858L131.623 12.3813C129.885 10.8864 127.246 12.1211 127.216 14.4431L127.013 29.8342Z" fill="#E37D82"/>
<path d="M127.013 27.594C126.99 29.3482 128.546 30.6867 130.222 30.3545L144.925 27.4401C147.143 27.0004 147.861 24.1126 146.124 22.6177L131.623 10.1411C129.885 8.64618 127.246 9.88085 127.216 12.2028L127.013 27.594Z" fill="#FF9A9F"/>
</svg>
