<svg width="56" height="56" viewBox="0 0 56 56" fill="none" xmlns="http://www.w3.org/2000/svg">
<path fill-rule="evenodd" clip-rule="evenodd" d="M10 36C10.7956 36 11.5587 36.3161 12.1213 36.8787C12.6839 37.4413 13 38.2044 13 39C13 39.7956 12.6839 40.5587 12.1213 41.1213C11.5587 41.6839 10.7956 42 10 42C9.20435 42 8.44129 41.6839 7.87868 41.1213C7.31607 40.5587 7 39.7956 7 39C7 38.2044 7.31607 37.4413 7.87868 36.8787C8.44129 36.3161 9.20435 36 10 36ZM45.998 37C47.104 37 48 37.888 48 39C48 40.105 47.11 41 45.998 41H18.002C17.739 41.0008 17.4785 40.9496 17.2354 40.8494C16.9923 40.7492 16.7713 40.6019 16.5853 40.4161C16.3993 40.2303 16.2518 40.0095 16.1514 39.7665C16.0509 39.5234 15.9995 39.263 16 39C16 37.895 16.89 37 18.002 37H45.998ZM10 26C10.7956 26 11.5587 26.3161 12.1213 26.8787C12.6839 27.4413 13 28.2044 13 29C13 29.7956 12.6839 30.5587 12.1213 31.1213C11.5587 31.6839 10.7956 32 10 32C9.20435 32 8.44129 31.6839 7.87868 31.1213C7.31607 30.5587 7 29.7956 7 29C7 28.2044 7.31607 27.4413 7.87868 26.8787C8.44129 26.3161 9.20435 26 10 26ZM45.998 27C47.104 27 48 27.888 48 29C48 30.105 47.11 31 45.998 31H18.002C17.739 31.0008 17.4785 30.9496 17.2354 30.8494C16.9923 30.7492 16.7713 30.6019 16.5853 30.4161C16.3993 30.2303 16.2518 30.0095 16.1514 29.7665C16.0509 29.5234 15.9995 29.263 16 29C16 27.895 16.89 27 18.002 27H45.998ZM10 16C10.7956 16 11.5587 16.3161 12.1213 16.8787C12.6839 17.4413 13 18.2044 13 19C13 19.7956 12.6839 20.5587 12.1213 21.1213C11.5587 21.6839 10.7956 22 10 22C9.20435 22 8.44129 21.6839 7.87868 21.1213C7.31607 20.5587 7 19.7956 7 19C7 18.2044 7.31607 17.4413 7.87868 16.8787C8.44129 16.3161 9.20435 16 10 16ZM45.998 17C47.104 17 48 17.888 48 19C48 20.105 47.11 21 45.998 21H18.002C17.739 21.0008 17.4785 20.9496 17.2354 20.8494C16.9923 20.7492 16.7713 20.6019 16.5853 20.4161C16.3993 20.2303 16.2518 20.0095 16.1514 19.7665C16.0509 19.5234 15.9995 19.263 16 19C16 17.895 16.89 17 18.002 17H45.998Z" fill="#E37D82"/>
</svg>
