<svg width="33" height="33" viewBox="0 0 33 33" fill="none" xmlns="http://www.w3.org/2000/svg">
<path d="M15.125 24.75L12.375 23.375M12.375 23.375L4.125 27.5V9.625L12.375 5.5M12.375 23.375V5.5M12.375 5.5L20.625 9.625M20.625 9.625L28.875 5.5V15.8125M20.625 9.625V16.5M27.775 27.775L30.25 30.25M20.625 24.75C20.625 25.844 21.0596 26.8932 21.8332 27.6668C22.6068 28.4404 23.656 28.875 24.75 28.875C25.844 28.875 26.8932 28.4404 27.6668 27.6668C28.4404 26.8932 28.875 25.844 28.875 24.75C28.875 23.656 28.4404 22.6068 27.6668 21.8332C26.8932 21.0596 25.844 20.625 24.75 20.625C23.656 20.625 22.6068 21.0596 21.8332 21.8332C21.0596 22.6068 20.625 23.656 20.625 24.75Z" stroke="#E34A4A" stroke-width="3" stroke-linecap="round" stroke-linejoin="round"/>
</svg>
