<svg width="308" height="137" viewBox="0 0 308 137" fill="none" xmlns="http://www.w3.org/2000/svg">
<rect x="108" y="87" width="91" height="50" rx="25" fill="#E37D82"/>
<rect x="108" y="81" width="91" height="50" rx="25" fill="#FF9A9F"/>
<circle cx="136" cy="106" r="9" fill="#4B3F4E"/>
<circle cx="172" cy="106" r="9" fill="#4B3F4E"/>
<circle cx="87" cy="70" r="9" fill="#4B3F4E"/>
<circle cx="220" cy="70" r="9" fill="#4B3F4E"/>
<path d="M53.6002 50.2154C53.643 53.3839 50.7654 55.7925 47.6539 55.1926L20.9019 50.034C16.7654 49.2363 15.4089 43.9942 18.6393 41.2903L45.0232 19.2064C48.2536 16.5025 53.1751 18.7607 53.232 22.973L53.6002 50.2154Z" fill="#E37D82"/>
<path d="M53.6002 46.2154C53.643 49.3839 50.7654 51.7925 47.6539 51.1926L20.9019 46.034C16.7654 45.2363 15.4089 39.9942 18.6393 37.2903L45.0232 15.2064C48.2536 12.5025 53.1751 14.7607 53.232 18.973L53.6002 46.2154Z" fill="#FF9A9F"/>
<path d="M253.63 50.2154C253.587 53.3839 256.465 55.7925 259.577 55.1926L286.329 50.034C290.465 49.2363 291.822 43.9942 288.591 41.2903L262.207 19.2064C258.977 16.5025 254.055 18.7607 253.998 22.973L253.63 50.2154Z" fill="#E37D82"/>
<path d="M253.63 46.2154C253.587 49.3839 256.465 51.7925 259.577 51.1926L286.329 46.034C290.465 45.2363 291.822 39.9942 288.591 37.2903L262.207 15.2064C258.977 12.5025 254.055 14.7607 253.998 18.973L253.63 46.2154Z" fill="#FF9A9F"/>
</svg>
