<svg width="56" height="56" viewBox="0 0 56 56" fill="none" xmlns="http://www.w3.org/2000/svg">
<path d="M27.9737 4.89648C27.2982 4.89648 26.6226 5.04786 26.0993 5.35061L9.39199 15.015C8.34527 15.6205 8.34527 16.578 9.39199 17.1835L26.0993 26.8478C27.1461 27.4533 28.8012 27.4533 29.8478 26.8478L46.5552 17.1835C47.6019 16.5781 47.6019 15.6205 46.5552 15.0151L29.8478 5.35072C29.3245 5.04775 28.6491 4.89648 27.9737 4.89648ZM27.8836 10.7054C28.8694 10.716 29.7558 10.9419 30.5425 11.3826C31.0806 11.6843 31.4331 12.0283 31.5997 12.4149C31.7608 12.7985 31.7703 13.3041 31.6281 13.9314L31.4531 14.5555C31.3372 15.0021 31.3131 15.3233 31.381 15.5191C31.4433 15.712 31.5978 15.8776 31.8449 16.0161L32.2157 16.2237L28.5806 18.2602L28.1767 18.0342C27.7263 17.782 27.4391 17.4969 27.3145 17.1789C27.1846 16.8578 27.2062 16.3473 27.3795 15.6471L27.5462 15.0184C27.6432 14.644 27.6526 14.337 27.5746 14.0977C27.5032 13.8544 27.3412 13.662 27.0885 13.5205C26.7041 13.305 26.2435 13.2278 25.7071 13.2883C25.1651 13.3458 24.6055 13.5363 24.0282 13.8598C23.4844 14.1644 22.9906 14.5458 22.5462 15.0038C22.0964 15.459 21.7106 15.9799 21.3882 16.5666L18.8015 15.1171C19.3832 14.5331 19.9547 14.0223 20.5161 13.5845C21.0776 13.147 21.6704 12.7532 22.2947 12.4032C23.9327 11.4856 25.456 10.9398 26.8644 10.7662C27.2024 10.7228 27.543 10.7024 27.8838 10.7053L27.8836 10.7054ZM33.4351 16.907L36.368 18.5502L32.7329 20.5868L29.7999 18.9436L33.4351 16.907ZM8.27636 19.0142C7.64713 18.9972 7.21936 19.4884 7.21936 20.3573V37.6053C7.21936 38.8141 8.04733 40.2481 9.09405 40.8526L25.1645 50.1329C26.2112 50.7373 27.0392 50.2593 27.0392 49.0506V31.8023C27.0392 30.5935 26.2112 29.1598 25.1645 28.5552L9.09405 19.275C8.79983 19.105 8.52256 19.0205 8.27636 19.014V19.0142ZM47.7359 19.0144C47.4898 19.021 47.2128 19.1052 46.9184 19.2753L30.8474 28.5554C29.8007 29.1599 28.9727 30.5939 28.9727 31.8027V49.0512C28.9727 50.2598 29.8007 50.7375 30.8474 50.1329L46.9185 40.8531C47.9653 40.2486 48.7929 38.8148 48.7929 37.6059V20.3575C48.7929 19.4889 48.3653 18.9978 47.7359 19.0146V19.0144ZM12.5669 25.9873C13.2837 26.1367 13.9383 26.3195 14.5306 26.5356C15.1245 26.7523 15.6983 27.0204 16.2456 27.3367C17.6908 28.1713 18.7925 29.1222 19.5507 30.1895C20.3089 31.2504 20.688 32.382 20.688 33.5844C20.688 34.2013 20.5726 34.6885 20.3415 35.0461C20.1105 35.3975 19.7165 35.6925 19.1598 35.9314L18.5911 36.1414C18.1884 36.2991 17.9247 36.4617 17.8003 36.6292C17.6759 36.7902 17.6138 37.0123 17.6138 37.2955V37.7205L14.4064 35.8684V35.4058C14.4064 34.8895 14.504 34.4896 14.6995 34.2059C14.895 33.9159 15.3068 33.6437 15.9346 33.3892L16.5033 33.1698C16.841 33.0375 17.0867 32.871 17.2407 32.6703C17.4004 32.4731 17.4805 32.2297 17.4805 31.9401C17.4805 31.4997 17.3383 31.0744 17.0539 30.6648C16.7695 30.2487 16.3728 29.8937 15.8634 29.5995C15.3835 29.3225 14.8652 29.1303 14.3084 29.0229C13.7517 28.9091 13.1711 28.8857 12.5669 28.9523V25.9873ZM42.0479 26.9287C42.2143 26.9287 42.3685 26.9467 42.5107 26.9826C43.2689 27.1681 43.648 27.862 43.648 29.0644C43.648 29.6813 43.5325 30.3019 43.3015 30.9263C43.0705 31.5443 42.6766 32.2943 42.1198 33.1759L41.5511 34.0426C41.1484 34.6655 40.8847 35.1323 40.7603 35.4434C40.6359 35.748 40.5738 36.042 40.5738 36.3253V36.7502L37.3664 38.6021V38.1395C37.3664 37.6232 37.4642 37.1103 37.6595 36.6009C37.8553 36.0852 38.2668 35.3376 38.8946 34.3583L39.4633 33.4822C39.801 32.9598 40.0467 32.5094 40.2007 32.131C40.3604 31.749 40.4405 31.4132 40.4405 31.1236C40.4405 30.6831 40.2983 30.4221 40.0141 30.3407C39.7298 30.2532 39.3327 30.3562 38.8234 30.6502C38.3435 30.9273 37.8254 31.3338 37.2686 31.8692C36.7119 32.3986 36.1313 33.0452 35.5271 33.8095V30.8444C36.2439 30.1663 36.8983 29.5931 37.4904 29.1252C38.0829 28.6573 38.6547 28.2645 39.2054 27.9465C40.3799 27.2684 41.3273 26.9291 42.0481 26.9285L42.0479 26.9287ZM14.4063 37.2662L17.6138 39.1179V42.4797L14.4064 40.628V37.2663L14.4063 37.2662ZM40.5738 38.1478V41.5094L37.3664 43.3612V39.9997L40.5738 38.1478Z" fill="#E37D82"/>
</svg>
