<svg width="39" height="39" viewBox="0 0 39 39" fill="none" xmlns="http://www.w3.org/2000/svg">
<path d="M37 37L28.5554 28.5554M28.5554 28.5554C29.9999 27.1109 31.1457 25.396 31.9274 23.5087C32.7092 21.6214 33.1116 19.5986 33.1116 17.5558C33.1116 15.513 32.7092 13.4902 31.9274 11.6028C31.1457 9.71553 29.9999 8.00067 28.5554 6.55618C27.1109 5.11169 25.396 3.96586 23.5087 3.18411C21.6214 2.40236 19.5986 2 17.5558 2C15.513 2 13.4902 2.40236 11.6028 3.18411C9.71553 3.96586 8.00067 5.11169 6.55618 6.55618C3.63891 9.47346 2 13.4301 2 17.5558C2 21.6814 3.63891 25.6381 6.55618 28.5554C9.47346 31.4726 13.4301 33.1116 17.5558 33.1116C21.6814 33.1116 25.6381 31.4726 28.5554 28.5554Z" stroke="#FFB9B4" stroke-width="4" stroke-linecap="round" stroke-linejoin="round"/>
</svg>
