<svg width="49" height="49" viewBox="0 0 49 49" fill="none" xmlns="http://www.w3.org/2000/svg">
<path d="M48.1249 17.2297C47.7974 16.8216 47.3938 16.4943 46.9412 16.2696C46.4885 16.0449 45.9972 15.9281 45.4999 15.9268H37.544L25.8124 1.30553C25.6482 1.10239 25.4463 0.939692 25.22 0.828253C24.9937 0.716813 24.7482 0.65918 24.4999 0.65918C24.2517 0.65918 24.0062 0.716813 23.7799 0.828253C23.5536 0.939692 23.3517 1.10239 23.1874 1.30553L11.4559 15.9268H3.49994C3.00134 15.9268 2.50849 16.043 2.0544 16.2677C1.60031 16.4923 1.19547 16.8202 0.866973 17.2294C0.538478 17.6386 0.293918 18.1197 0.14967 18.6403C0.00542164 19.161 -0.0351854 19.7093 0.030568 20.2485L3.06244 45.069C3.17485 45.9864 3.58884 46.8279 4.22741 47.4372C4.86598 48.0464 5.68566 48.382 6.53401 48.3813H42.4659C43.3142 48.382 44.1339 48.0464 44.7725 47.4372C45.4111 46.8279 45.825 45.9864 45.9374 45.069L48.9715 20.2509C49.0362 19.7106 48.9941 19.1614 48.8481 18.6403C48.7021 18.1192 48.4555 17.6382 48.1249 17.2297ZM14.3499 40.745C14.2909 40.7485 14.2318 40.7485 14.1728 40.745C13.7374 40.7473 13.3169 40.5726 12.9933 40.2549C12.6697 39.9372 12.4663 39.4993 12.4228 39.0268L11.1978 25.6631C11.1513 25.1594 11.2903 24.6561 11.584 24.264C11.8777 23.872 12.3022 23.6233 12.764 23.5727C13.2258 23.5221 13.6871 23.6736 14.0465 23.9941C14.4059 24.3145 14.6338 24.7775 14.6803 25.2813L15.9053 38.645C15.9543 39.1484 15.8179 39.6525 15.5263 40.0463C15.2346 40.4402 14.8115 40.6915 14.3499 40.745ZM26.2499 38.8359C26.2499 39.3422 26.0656 39.8278 25.7374 40.1858C25.4092 40.5438 24.9641 40.745 24.4999 40.745C24.0358 40.745 23.5907 40.5438 23.2625 40.1858C22.9343 39.8278 22.7499 39.3422 22.7499 38.8359V25.4722C22.7499 24.9659 22.9343 24.4803 23.2625 24.1223C23.5907 23.7643 24.0358 23.5631 24.4999 23.5631C24.9641 23.5631 25.4092 23.7643 25.7374 24.1223C26.0656 24.4803 26.2499 24.9659 26.2499 25.4722V38.8359ZM16.1065 15.9268L24.4999 5.46257L32.8934 15.9268H16.1065ZM37.7912 25.6631L36.5662 39.0268C36.5228 39.4973 36.321 39.9335 35.9997 40.2509C35.6784 40.5683 35.2606 40.7444 34.8271 40.745C34.7681 40.7485 34.709 40.7485 34.6499 40.745C34.4213 40.7199 34.1994 40.6459 33.9969 40.5273C33.7944 40.4087 33.6154 40.2477 33.4699 40.0536C33.3245 39.8595 33.2155 39.636 33.1493 39.396C33.083 39.1559 33.0607 38.904 33.0837 38.6545L34.3087 25.2909C34.3551 24.7871 34.5831 24.324 34.9424 24.0036C35.3018 23.6832 35.7631 23.5316 36.2249 23.5822C36.6868 23.6329 37.1112 23.8816 37.4049 24.2736C37.6987 24.6656 37.8376 25.1689 37.7912 25.6727V25.6631Z" fill="#E37D82"/>
</svg>
